<mxfile host="app.diagrams.net" modified="2024-06-17T14:05:40.016Z" agent="Mozilla/5.0 (Windows NT 10.0; Win64; x64) AppleWebKit/537.36 (KHTML, like Gecko) Chrome/121.0.0.0 Safari/537.36" etag="9YEBS-1FulBjRnUczSVm" version="24.5.4" type="device">
  <diagram name="Página-1" id="g9yKS4x87hFlvZbshEjX">
    <mxGraphModel dx="941" dy="507" grid="1" gridSize="10" guides="1" tooltips="1" connect="1" arrows="1" fold="1" page="1" pageScale="1" pageWidth="827" pageHeight="1169" math="0" shadow="0">
      <root>
        <mxCell id="0" />
        <mxCell id="1" parent="0" />
        <mxCell id="mpfc_lxuUzAu9I0zO1ub-94" value="Cliente" style="swimlane;fontStyle=1;align=center;verticalAlign=top;childLayout=stackLayout;horizontal=1;startSize=26;horizontalStack=0;resizeParent=1;resizeParentMax=0;resizeLast=0;collapsible=1;marginBottom=0;whiteSpace=wrap;html=1;fillColor=#dae8fc;strokeColor=#6c8ebf;" parent="1" vertex="1">
          <mxGeometry x="80" y="40" width="160" height="240" as="geometry">
            <mxRectangle x="90" y="70" width="100" height="30" as="alternateBounds" />
          </mxGeometry>
        </mxCell>
        <mxCell id="mpfc_lxuUzAu9I0zO1ub-95" value="Atributos:&lt;div&gt;&lt;br&gt;&lt;/div&gt;" style="text;strokeColor=#6c8ebf;fillColor=#dae8fc;align=center;verticalAlign=top;spacingLeft=4;spacingRight=4;overflow=hidden;rotatable=0;points=[[0,0.5],[1,0.5]];portConstraint=eastwest;whiteSpace=wrap;html=1;" parent="mpfc_lxuUzAu9I0zO1ub-94" vertex="1">
          <mxGeometry y="26" width="160" height="94" as="geometry" />
        </mxCell>
        <mxCell id="mpfc_lxuUzAu9I0zO1ub-96" value="" style="line;strokeWidth=1;fillColor=none;align=left;verticalAlign=middle;spacingTop=-1;spacingLeft=3;spacingRight=3;rotatable=0;labelPosition=right;points=[];portConstraint=eastwest;strokeColor=inherit;" parent="mpfc_lxuUzAu9I0zO1ub-94" vertex="1">
          <mxGeometry y="120" width="160" as="geometry" />
        </mxCell>
        <mxCell id="mpfc_lxuUzAu9I0zO1ub-97" value="Método:" style="text;strokeColor=#6c8ebf;fillColor=#dae8fc;align=center;verticalAlign=top;spacingLeft=4;spacingRight=4;overflow=hidden;rotatable=0;points=[[0,0.5],[1,0.5]];portConstraint=eastwest;whiteSpace=wrap;html=1;" parent="mpfc_lxuUzAu9I0zO1ub-94" vertex="1">
          <mxGeometry y="120" width="160" height="120" as="geometry" />
        </mxCell>
        <mxCell id="mpfc_lxuUzAu9I0zO1ub-100" value="Fornecedor" style="swimlane;fontStyle=1;align=center;verticalAlign=top;childLayout=stackLayout;horizontal=1;startSize=26;horizontalStack=0;resizeParent=1;resizeParentMax=0;resizeLast=0;collapsible=1;marginBottom=0;whiteSpace=wrap;html=1;fillColor=#dae8fc;strokeColor=#6c8ebf;" parent="1" vertex="1">
          <mxGeometry x="320" y="40" width="160" height="240" as="geometry">
            <mxRectangle x="90" y="70" width="100" height="30" as="alternateBounds" />
          </mxGeometry>
        </mxCell>
        <mxCell id="mpfc_lxuUzAu9I0zO1ub-101" value="Atributos:&lt;div&gt;&lt;br&gt;&lt;/div&gt;" style="text;strokeColor=#6c8ebf;fillColor=#dae8fc;align=center;verticalAlign=top;spacingLeft=4;spacingRight=4;overflow=hidden;rotatable=0;points=[[0,0.5],[1,0.5]];portConstraint=eastwest;whiteSpace=wrap;html=1;" parent="mpfc_lxuUzAu9I0zO1ub-100" vertex="1">
          <mxGeometry y="26" width="160" height="94" as="geometry" />
        </mxCell>
        <mxCell id="mpfc_lxuUzAu9I0zO1ub-102" value="" style="line;strokeWidth=1;fillColor=none;align=left;verticalAlign=middle;spacingTop=-1;spacingLeft=3;spacingRight=3;rotatable=0;labelPosition=right;points=[];portConstraint=eastwest;strokeColor=inherit;" parent="mpfc_lxuUzAu9I0zO1ub-100" vertex="1">
          <mxGeometry y="120" width="160" as="geometry" />
        </mxCell>
        <mxCell id="mpfc_lxuUzAu9I0zO1ub-103" value="Método:" style="text;strokeColor=#6c8ebf;fillColor=#dae8fc;align=center;verticalAlign=top;spacingLeft=4;spacingRight=4;overflow=hidden;rotatable=0;points=[[0,0.5],[1,0.5]];portConstraint=eastwest;whiteSpace=wrap;html=1;" parent="mpfc_lxuUzAu9I0zO1ub-100" vertex="1">
          <mxGeometry y="120" width="160" height="120" as="geometry" />
        </mxCell>
        <mxCell id="mpfc_lxuUzAu9I0zO1ub-112" value="Matéria Prima" style="swimlane;fontStyle=1;align=center;verticalAlign=top;childLayout=stackLayout;horizontal=1;startSize=26;horizontalStack=0;resizeParent=1;resizeParentMax=0;resizeLast=0;collapsible=1;marginBottom=0;whiteSpace=wrap;html=1;fillColor=#dae8fc;strokeColor=#6c8ebf;" parent="1" vertex="1">
          <mxGeometry x="560" y="40" width="160" height="240" as="geometry">
            <mxRectangle x="90" y="70" width="100" height="30" as="alternateBounds" />
          </mxGeometry>
        </mxCell>
        <mxCell id="mpfc_lxuUzAu9I0zO1ub-113" value="Atributos:&lt;div&gt;&lt;br&gt;&lt;/div&gt;" style="text;strokeColor=#6c8ebf;fillColor=#dae8fc;align=center;verticalAlign=top;spacingLeft=4;spacingRight=4;overflow=hidden;rotatable=0;points=[[0,0.5],[1,0.5]];portConstraint=eastwest;whiteSpace=wrap;html=1;" parent="mpfc_lxuUzAu9I0zO1ub-112" vertex="1">
          <mxGeometry y="26" width="160" height="94" as="geometry" />
        </mxCell>
        <mxCell id="mpfc_lxuUzAu9I0zO1ub-114" value="" style="line;strokeWidth=1;fillColor=none;align=left;verticalAlign=middle;spacingTop=-1;spacingLeft=3;spacingRight=3;rotatable=0;labelPosition=right;points=[];portConstraint=eastwest;strokeColor=inherit;" parent="mpfc_lxuUzAu9I0zO1ub-112" vertex="1">
          <mxGeometry y="120" width="160" as="geometry" />
        </mxCell>
        <mxCell id="mpfc_lxuUzAu9I0zO1ub-115" value="Método:" style="text;strokeColor=#6c8ebf;fillColor=#dae8fc;align=center;verticalAlign=top;spacingLeft=4;spacingRight=4;overflow=hidden;rotatable=0;points=[[0,0.5],[1,0.5]];portConstraint=eastwest;whiteSpace=wrap;html=1;" parent="mpfc_lxuUzAu9I0zO1ub-112" vertex="1">
          <mxGeometry y="120" width="160" height="120" as="geometry" />
        </mxCell>
        <mxCell id="mpfc_lxuUzAu9I0zO1ub-120" value="Produto" style="swimlane;fontStyle=1;align=center;verticalAlign=top;childLayout=stackLayout;horizontal=1;startSize=26;horizontalStack=0;resizeParent=1;resizeParentMax=0;resizeLast=0;collapsible=1;marginBottom=0;whiteSpace=wrap;html=1;fillColor=#dae8fc;strokeColor=#6c8ebf;" parent="1" vertex="1">
          <mxGeometry x="80" y="440" width="160" height="240" as="geometry">
            <mxRectangle x="90" y="70" width="100" height="30" as="alternateBounds" />
          </mxGeometry>
        </mxCell>
        <mxCell id="mpfc_lxuUzAu9I0zO1ub-121" value="Atributos:&lt;div&gt;&lt;br&gt;&lt;/div&gt;" style="text;strokeColor=#6c8ebf;fillColor=#dae8fc;align=center;verticalAlign=top;spacingLeft=4;spacingRight=4;overflow=hidden;rotatable=0;points=[[0,0.5],[1,0.5]];portConstraint=eastwest;whiteSpace=wrap;html=1;" parent="mpfc_lxuUzAu9I0zO1ub-120" vertex="1">
          <mxGeometry y="26" width="160" height="94" as="geometry" />
        </mxCell>
        <mxCell id="mpfc_lxuUzAu9I0zO1ub-122" value="" style="line;strokeWidth=1;fillColor=none;align=left;verticalAlign=middle;spacingTop=-1;spacingLeft=3;spacingRight=3;rotatable=0;labelPosition=right;points=[];portConstraint=eastwest;strokeColor=inherit;" parent="mpfc_lxuUzAu9I0zO1ub-120" vertex="1">
          <mxGeometry y="120" width="160" as="geometry" />
        </mxCell>
        <mxCell id="mpfc_lxuUzAu9I0zO1ub-123" value="Método:" style="text;strokeColor=#6c8ebf;fillColor=#dae8fc;align=center;verticalAlign=top;spacingLeft=4;spacingRight=4;overflow=hidden;rotatable=0;points=[[0,0.5],[1,0.5]];portConstraint=eastwest;whiteSpace=wrap;html=1;" parent="mpfc_lxuUzAu9I0zO1ub-120" vertex="1">
          <mxGeometry y="120" width="160" height="120" as="geometry" />
        </mxCell>
        <mxCell id="mpfc_lxuUzAu9I0zO1ub-124" value="Pedido" style="swimlane;fontStyle=1;align=center;verticalAlign=top;childLayout=stackLayout;horizontal=1;startSize=26;horizontalStack=0;resizeParent=1;resizeParentMax=0;resizeLast=0;collapsible=1;marginBottom=0;whiteSpace=wrap;html=1;fillColor=#dae8fc;strokeColor=#6c8ebf;" parent="1" vertex="1">
          <mxGeometry x="320" y="440" width="160" height="240" as="geometry">
            <mxRectangle x="90" y="70" width="100" height="30" as="alternateBounds" />
          </mxGeometry>
        </mxCell>
        <mxCell id="mpfc_lxuUzAu9I0zO1ub-125" value="Atributos:&lt;div&gt;&lt;br&gt;&lt;/div&gt;" style="text;strokeColor=#6c8ebf;fillColor=#dae8fc;align=center;verticalAlign=top;spacingLeft=4;spacingRight=4;overflow=hidden;rotatable=0;points=[[0,0.5],[1,0.5]];portConstraint=eastwest;whiteSpace=wrap;html=1;" parent="mpfc_lxuUzAu9I0zO1ub-124" vertex="1">
          <mxGeometry y="26" width="160" height="94" as="geometry" />
        </mxCell>
        <mxCell id="mpfc_lxuUzAu9I0zO1ub-126" value="" style="line;strokeWidth=1;fillColor=none;align=left;verticalAlign=middle;spacingTop=-1;spacingLeft=3;spacingRight=3;rotatable=0;labelPosition=right;points=[];portConstraint=eastwest;strokeColor=inherit;" parent="mpfc_lxuUzAu9I0zO1ub-124" vertex="1">
          <mxGeometry y="120" width="160" as="geometry" />
        </mxCell>
        <mxCell id="mpfc_lxuUzAu9I0zO1ub-127" value="Método:" style="text;strokeColor=#6c8ebf;fillColor=#dae8fc;align=center;verticalAlign=top;spacingLeft=4;spacingRight=4;overflow=hidden;rotatable=0;points=[[0,0.5],[1,0.5]];portConstraint=eastwest;whiteSpace=wrap;html=1;" parent="mpfc_lxuUzAu9I0zO1ub-124" vertex="1">
          <mxGeometry y="120" width="160" height="120" as="geometry" />
        </mxCell>
        <mxCell id="mpfc_lxuUzAu9I0zO1ub-128" value="Envio" style="swimlane;fontStyle=1;align=center;verticalAlign=top;childLayout=stackLayout;horizontal=1;startSize=26;horizontalStack=0;resizeParent=1;resizeParentMax=0;resizeLast=0;collapsible=1;marginBottom=0;whiteSpace=wrap;html=1;fillColor=#dae8fc;strokeColor=#6c8ebf;" parent="1" vertex="1">
          <mxGeometry x="560" y="440" width="160" height="240" as="geometry">
            <mxRectangle x="90" y="70" width="100" height="30" as="alternateBounds" />
          </mxGeometry>
        </mxCell>
        <mxCell id="mpfc_lxuUzAu9I0zO1ub-129" value="Atributos:&lt;div&gt;&lt;br&gt;&lt;/div&gt;" style="text;strokeColor=#6c8ebf;fillColor=#dae8fc;align=center;verticalAlign=top;spacingLeft=4;spacingRight=4;overflow=hidden;rotatable=0;points=[[0,0.5],[1,0.5]];portConstraint=eastwest;whiteSpace=wrap;html=1;" parent="mpfc_lxuUzAu9I0zO1ub-128" vertex="1">
          <mxGeometry y="26" width="160" height="94" as="geometry" />
        </mxCell>
        <mxCell id="mpfc_lxuUzAu9I0zO1ub-130" value="" style="line;strokeWidth=1;fillColor=none;align=left;verticalAlign=middle;spacingTop=-1;spacingLeft=3;spacingRight=3;rotatable=0;labelPosition=right;points=[];portConstraint=eastwest;strokeColor=inherit;" parent="mpfc_lxuUzAu9I0zO1ub-128" vertex="1">
          <mxGeometry y="120" width="160" as="geometry" />
        </mxCell>
        <mxCell id="mpfc_lxuUzAu9I0zO1ub-131" value="Método:" style="text;strokeColor=#6c8ebf;fillColor=#dae8fc;align=center;verticalAlign=top;spacingLeft=4;spacingRight=4;overflow=hidden;rotatable=0;points=[[0,0.5],[1,0.5]];portConstraint=eastwest;whiteSpace=wrap;html=1;" parent="mpfc_lxuUzAu9I0zO1ub-128" vertex="1">
          <mxGeometry y="120" width="160" height="120" as="geometry" />
        </mxCell>
        <mxCell id="mpfc_lxuUzAu9I0zO1ub-132" value="Compra" style="swimlane;fontStyle=1;align=center;verticalAlign=top;childLayout=stackLayout;horizontal=1;startSize=26;horizontalStack=0;resizeParent=1;resizeParentMax=0;resizeLast=0;collapsible=1;marginBottom=0;whiteSpace=wrap;html=1;fillColor=#dae8fc;strokeColor=#6c8ebf;" parent="1" vertex="1">
          <mxGeometry x="80" y="840" width="160" height="240" as="geometry">
            <mxRectangle x="90" y="70" width="100" height="30" as="alternateBounds" />
          </mxGeometry>
        </mxCell>
        <mxCell id="mpfc_lxuUzAu9I0zO1ub-133" value="Atributos:&lt;div&gt;&lt;br&gt;&lt;/div&gt;" style="text;strokeColor=#6c8ebf;fillColor=#dae8fc;align=center;verticalAlign=top;spacingLeft=4;spacingRight=4;overflow=hidden;rotatable=0;points=[[0,0.5],[1,0.5]];portConstraint=eastwest;whiteSpace=wrap;html=1;" parent="mpfc_lxuUzAu9I0zO1ub-132" vertex="1">
          <mxGeometry y="26" width="160" height="94" as="geometry" />
        </mxCell>
        <mxCell id="mpfc_lxuUzAu9I0zO1ub-134" value="" style="line;strokeWidth=1;fillColor=none;align=left;verticalAlign=middle;spacingTop=-1;spacingLeft=3;spacingRight=3;rotatable=0;labelPosition=right;points=[];portConstraint=eastwest;strokeColor=inherit;" parent="mpfc_lxuUzAu9I0zO1ub-132" vertex="1">
          <mxGeometry y="120" width="160" as="geometry" />
        </mxCell>
        <mxCell id="mpfc_lxuUzAu9I0zO1ub-135" value="Método:" style="text;strokeColor=#6c8ebf;fillColor=#dae8fc;align=center;verticalAlign=top;spacingLeft=4;spacingRight=4;overflow=hidden;rotatable=0;points=[[0,0.5],[1,0.5]];portConstraint=eastwest;whiteSpace=wrap;html=1;" parent="mpfc_lxuUzAu9I0zO1ub-132" vertex="1">
          <mxGeometry y="120" width="160" height="120" as="geometry" />
        </mxCell>
        <mxCell id="mpfc_lxuUzAu9I0zO1ub-136" value="Fornecedor" style="swimlane;fontStyle=1;align=center;verticalAlign=top;childLayout=stackLayout;horizontal=1;startSize=26;horizontalStack=0;resizeParent=1;resizeParentMax=0;resizeLast=0;collapsible=1;marginBottom=0;whiteSpace=wrap;html=1;fillColor=#dae8fc;strokeColor=#6c8ebf;" parent="1" vertex="1">
          <mxGeometry x="320" y="840" width="160" height="240" as="geometry">
            <mxRectangle x="90" y="70" width="100" height="30" as="alternateBounds" />
          </mxGeometry>
        </mxCell>
        <mxCell id="mpfc_lxuUzAu9I0zO1ub-137" value="Atributos:&lt;div&gt;&lt;br&gt;&lt;/div&gt;" style="text;strokeColor=#6c8ebf;fillColor=#dae8fc;align=center;verticalAlign=top;spacingLeft=4;spacingRight=4;overflow=hidden;rotatable=0;points=[[0,0.5],[1,0.5]];portConstraint=eastwest;whiteSpace=wrap;html=1;" parent="mpfc_lxuUzAu9I0zO1ub-136" vertex="1">
          <mxGeometry y="26" width="160" height="94" as="geometry" />
        </mxCell>
        <mxCell id="mpfc_lxuUzAu9I0zO1ub-138" value="" style="line;strokeWidth=1;fillColor=none;align=left;verticalAlign=middle;spacingTop=-1;spacingLeft=3;spacingRight=3;rotatable=0;labelPosition=right;points=[];portConstraint=eastwest;strokeColor=inherit;" parent="mpfc_lxuUzAu9I0zO1ub-136" vertex="1">
          <mxGeometry y="120" width="160" as="geometry" />
        </mxCell>
        <mxCell id="mpfc_lxuUzAu9I0zO1ub-139" value="Método:" style="text;strokeColor=#6c8ebf;fillColor=#dae8fc;align=center;verticalAlign=top;spacingLeft=4;spacingRight=4;overflow=hidden;rotatable=0;points=[[0,0.5],[1,0.5]];portConstraint=eastwest;whiteSpace=wrap;html=1;" parent="mpfc_lxuUzAu9I0zO1ub-136" vertex="1">
          <mxGeometry y="120" width="160" height="120" as="geometry" />
        </mxCell>
        <mxCell id="mpfc_lxuUzAu9I0zO1ub-140" value="Matéria Prima" style="swimlane;fontStyle=1;align=center;verticalAlign=top;childLayout=stackLayout;horizontal=1;startSize=26;horizontalStack=0;resizeParent=1;resizeParentMax=0;resizeLast=0;collapsible=1;marginBottom=0;whiteSpace=wrap;html=1;fillColor=#dae8fc;strokeColor=#6c8ebf;" parent="1" vertex="1">
          <mxGeometry x="560" y="840" width="160" height="240" as="geometry">
            <mxRectangle x="90" y="70" width="100" height="30" as="alternateBounds" />
          </mxGeometry>
        </mxCell>
        <mxCell id="mpfc_lxuUzAu9I0zO1ub-141" value="Atributos:&lt;div&gt;&lt;br&gt;&lt;/div&gt;" style="text;strokeColor=#6c8ebf;fillColor=#dae8fc;align=center;verticalAlign=top;spacingLeft=4;spacingRight=4;overflow=hidden;rotatable=0;points=[[0,0.5],[1,0.5]];portConstraint=eastwest;whiteSpace=wrap;html=1;" parent="mpfc_lxuUzAu9I0zO1ub-140" vertex="1">
          <mxGeometry y="26" width="160" height="94" as="geometry" />
        </mxCell>
        <mxCell id="mpfc_lxuUzAu9I0zO1ub-142" value="" style="line;strokeWidth=1;fillColor=none;align=left;verticalAlign=middle;spacingTop=-1;spacingLeft=3;spacingRight=3;rotatable=0;labelPosition=right;points=[];portConstraint=eastwest;strokeColor=inherit;" parent="mpfc_lxuUzAu9I0zO1ub-140" vertex="1">
          <mxGeometry y="120" width="160" as="geometry" />
        </mxCell>
        <mxCell id="mpfc_lxuUzAu9I0zO1ub-143" value="Método:" style="text;strokeColor=#6c8ebf;fillColor=#dae8fc;align=center;verticalAlign=top;spacingLeft=4;spacingRight=4;overflow=hidden;rotatable=0;points=[[0,0.5],[1,0.5]];portConstraint=eastwest;whiteSpace=wrap;html=1;" parent="mpfc_lxuUzAu9I0zO1ub-140" vertex="1">
          <mxGeometry y="120" width="160" height="120" as="geometry" />
        </mxCell>
        <mxCell id="cKsGoyYIANnHtk8BpcLp-1" value="&lt;font style=&quot;font-size: 24px;&quot;&gt;+ Público&lt;/font&gt;&lt;div&gt;&lt;font style=&quot;font-size: 24px;&quot;&gt;- Privado&lt;/font&gt;&lt;/div&gt;&lt;div&gt;&lt;font style=&quot;font-size: 24px;&quot;&gt;# Protegido&lt;/font&gt;&lt;/div&gt;" style="text;html=1;align=center;verticalAlign=middle;resizable=0;points=[];autosize=1;strokeColor=none;fillColor=none;" vertex="1" parent="1">
          <mxGeometry x="80" y="320" width="150" height="100" as="geometry" />
        </mxCell>
      </root>
    </mxGraphModel>
  </diagram>
</mxfile>
